<?xml version="1.0" standalone="no"?>
<!DOCTYPE svg PUBLIC "-//W3C//DTD SVG 20010904//EN"
 "http://www.w3.org/TR/2001/REC-SVG-20010904/DTD/svg10.dtd">
<svg version="1.0" xmlns="http://www.w3.org/2000/svg"
 width="2000.000000pt" height="840.000000pt" viewBox="0 0 2000.000000 840.000000"
 preserveAspectRatio="xMidYMid meet">

<g transform="translate(0.000000,840.000000) scale(0.100000,-0.100000)"
fill="#000000" stroke="none">
<path d="M5690 7006 l0 -1343 -1063 -1054 c-584 -580 -1105 -1090 -1157 -1133
-308 -257 -570 -348 -1000 -348 -297 0 -507 44 -750 158 -685 323 -1016 1148
-745 1859 118 307 377 594 685 758 240 127 497 187 806 187 468 0 834 -139
1142 -434 68 -65 176 -190 232 -268 18 -27 36 -48 40 -48 4 0 124 73 268 163
143 89 290 180 326 202 l65 40 -71 115 c-273 444 -618 711 -1149 890 -263 89
-454 120 -779 127 -391 8 -611 -22 -920 -126 -599 -203 -1059 -603 -1333
-1162 -136 -276 -207 -540 -228 -846 -39 -560 104 -1049 434 -1488 85 -113
334 -359 448 -443 295 -218 594 -349 959 -422 230 -46 562 -61 810 -36 546 54
951 211 1325 513 59 48 689 669 1530 1508 787 785 1457 1448 1490 1473 139
108 303 187 475 229 94 22 393 26 480 5 168 -41 276 -92 366 -175 165 -151
252 -337 301 -639 14 -91 17 -266 22 -1463 l6 -1360 410 0 410 0 0 1240 c0
1268 -3 1407 -41 1695 -53 409 -161 687 -364 935 -183 223 -461 413 -715 489
-33 10 -71 21 -85 26 -14 5 -65 17 -115 27 -130 26 -529 26 -665 0 -258 -50
-479 -137 -690 -274 -97 -63 -239 -174 -289 -227 -19 -20 -39 -36 -43 -36 -4
0 -8 457 -8 1015 l0 1015 -410 0 -410 0 0 -1344z"/>
<path d="M10283 5242 l-323 -2 0 -1410 0 -1410 330 0 330 0 0 1409 c0 776 -3
1411 -7 1413 -5 2 -153 2 -330 0z"/>
<path d="M11094 5241 c-2 -2 -4 -638 -4 -1413 l0 -1408 323 0 322 0 -3 353 -2
353 187 195 c104 107 192 194 198 194 5 0 72 -76 148 -170 389 -477 542 -664
642 -788 l110 -136 383 -1 383 0 -74 93 c-249 314 -380 479 -437 552 -96 122
-531 673 -632 800 -49 61 -88 114 -88 118 0 4 51 62 113 128 61 67 148 161
192 209 44 48 226 244 405 435 461 494 450 482 446 486 -3 2 -166 3 -363 1
l-360 -2 -163 -173 c-90 -94 -238 -251 -329 -347 -92 -96 -218 -229 -281 -295
-221 -230 -445 -468 -457 -484 -10 -14 -12 -14 -17 -1 -4 8 -5 304 -4 657 l3
642 -318 3 c-175 2 -321 1 -323 -1z"/>
<path d="M14674 5241 c-2 -2 -4 -381 -4 -840 0 -686 3 -859 15 -959 25 -202
58 -321 131 -465 60 -121 94 -168 194 -268 134 -136 280 -221 481 -278 321
-92 731 -78 1024 33 353 135 590 418 674 805 39 179 42 265 39 1134 l-3 838
-320 0 -320 0 -6 -898 c-5 -869 -6 -900 -26 -969 -87 -301 -277 -444 -593
-446 -294 -2 -484 121 -577 372 -16 42 -31 106 -44 180 -5 31 -9 429 -9 907
l0 852 -326 3 c-179 2 -328 1 -330 -1z"/>
<path d="M17522 4978 l3 -263 753 -3 c464 -1 752 -6 750 -12 -2 -5 -53 -69
-114 -142 -61 -73 -287 -347 -504 -608 -216 -261 -412 -497 -436 -525 -55 -64
-394 -475 -445 -538 l-39 -49 0 -209 0 -209 1235 0 1235 0 0 265 0 265 -795 0
c-503 0 -795 4 -795 10 0 5 44 62 98 127 54 65 176 213 272 328 95 116 211
255 256 310 46 55 143 172 216 261 73 88 237 286 363 439 127 153 251 303 277
334 l48 56 0 213 0 212 -1190 0 -1190 0 2 -262z"/>
<path d="M6108 4454 l-418 -413 0 -801 0 -800 410 0 410 0 0 1045 c0 654 4
1100 11 1193 6 82 9 159 7 170 -2 16 -94 -70 -420 -394z"/>
<path d="M13965 3159 c-101 -23 -207 -105 -254 -197 -11 -22 -26 -72 -32 -111
-28 -185 57 -353 219 -429 51 -24 68 -27 167 -27 100 0 115 3 168 29 73 35
153 114 183 180 66 146 41 331 -60 443 -86 95 -253 143 -391 112z"/>
<path d="M760 1346 c0 -68 -6 -76 -59 -76 -25 0 -86 -9 -136 -20 -216 -48
-360 -164 -409 -329 -21 -72 -21 -230 0 -302 49 -165 193 -281 409 -329 50
-11 111 -20 136 -20 53 0 59 -8 59 -76 l0 -44 55 0 54 0 3 58 3 57 70 6 c379
36 584 258 536 583 -34 232 -227 379 -541 414 l-65 7 -3 58 -3 57 -54 0 -55 0
0 -44z m0 -575 c0 -321 -3 -400 -13 -404 -7 -3 -57 3 -109 12 -109 19 -223 70
-277 123 -150 147 -147 408 8 545 75 68 218 118 344 122 l47 1 0 -399z m334
363 c125 -43 202 -109 249 -212 18 -39 22 -66 22 -152 0 -99 -2 -109 -33 -172
-46 -94 -127 -159 -243 -197 -52 -17 -191 -40 -206 -34 -10 4 -13 87 -13 405
l0 401 77 -7 c42 -4 109 -18 147 -32z"/>
<path d="M14099 1383 c-1 -5 0 -23 1 -40 3 -58 -7 -73 -48 -73 -94 0 -266 -47
-347 -95 -151 -88 -225 -221 -225 -405 0 -199 86 -338 264 -425 73 -37 227
-75 302 -75 48 0 54 -9 54 -76 l0 -44 55 0 54 0 3 58 3 57 75 7 c286 27 486
169 529 376 16 75 14 188 -5 257 -52 202 -245 334 -529 363 l-70 7 -3 58 -3
57 -54 0 c-30 0 -55 -3 -56 -7z m328 -244 c116 -37 207 -109 250 -198 26 -51
28 -66 28 -171 0 -105 -2 -120 -28 -171 -56 -114 -182 -193 -356 -223 -51 -9
-97 -13 -102 -10 -9 5 -13 797 -4 806 7 7 166 -18 212 -33z m-329 -365 c2
-305 -1 -394 -10 -402 -14 -11 -136 6 -207 29 -71 23 -153 73 -196 121 -62 69
-85 137 -85 248 0 112 23 179 86 249 76 84 245 153 364 148 l45 -2 3 -391z"/>
<path d="M8045 1344 c-235 -50 -421 -239 -456 -464 -60 -389 202 -700 589
-700 157 0 303 49 395 131 l42 38 -38 37 c-27 27 -42 35 -51 28 -133 -97 -204
-124 -330 -124 -149 0 -259 43 -357 141 -230 226 -166 621 123 763 90 44 170
60 269 53 90 -7 171 -35 236 -83 71 -51 71 -51 111 -10 l37 37 -40 35 c-126
109 -342 157 -530 118z"/>
<path d="M15396 1344 c-215 -42 -396 -212 -450 -420 -20 -76 -20 -228 -2 -305
37 -156 156 -305 297 -372 244 -117 538 -80 720 91 123 115 180 248 181 422 1
249 -117 440 -335 544 -108 51 -276 67 -411 40z m323 -128 c76 -31 100 -45
158 -99 56 -52 110 -143 130 -221 21 -84 14 -231 -16 -308 -46 -120 -144 -217
-266 -265 -63 -25 -83 -28 -190 -28 -95 0 -131 4 -170 19 -199 77 -315 245
-315 456 0 240 158 427 400 474 63 12 205 -3 269 -28z"/>
<path d="M1685 1338 c-3 -7 -4 -267 -3 -578 l3 -565 63 -3 62 -3 0 179 0 180
213 5 c226 5 283 14 378 62 139 71 211 224 187 401 -25 185 -153 296 -373 324
-120 15 -524 13 -530 -2z m587 -118 c74 -23 139 -73 171 -134 18 -34 21 -58
22 -136 0 -87 -3 -99 -29 -143 -34 -57 -72 -88 -146 -118 -49 -19 -78 -22
-267 -27 l-213 -5 0 292 0 291 199 0 c170 0 208 -3 263 -20z"/>
<path d="M2770 770 l0 -580 54 0 53 0 179 232 c460 595 545 703 554 706 6 2
10 -166 10 -467 l0 -471 60 0 60 0 0 580 0 580 -53 0 c-65 0 -52 13 -258 -255
-84 -110 -189 -247 -234 -304 -101 -131 -217 -282 -263 -343 -20 -26 -39 -45
-44 -42 -4 3 -8 216 -8 475 l0 469 -55 0 -55 0 0 -580z"/>
<path d="M4156 1341 c-3 -5 -11 -150 -16 -322 -6 -173 -18 -359 -26 -414 -33
-228 -92 -315 -213 -315 -38 0 -39 0 -45 -45 -4 -25 -4 -49 -1 -55 12 -19 152
-12 194 10 126 64 181 255 196 681 3 85 7 199 10 254 l3 100 281 3 281 2 0
-525 0 -525 60 0 60 0 0 580 0 580 -389 0 c-215 0 -392 -4 -395 -9z"/>
<path d="M5566 1258 c-24 -51 -53 -115 -66 -143 -12 -27 -57 -126 -100 -220
-42 -93 -88 -192 -100 -220 -13 -27 -42 -92 -66 -143 -24 -52 -44 -95 -44 -97
0 -2 -25 -55 -55 -120 -30 -64 -55 -118 -55 -121 0 -2 29 -4 64 -4 l63 0 63
143 c35 78 67 148 73 155 7 9 85 12 329 12 l319 0 18 -42 c10 -24 27 -63 39
-88 11 -25 34 -75 50 -112 l31 -68 60 0 c36 0 61 4 61 11 0 10 -8 29 -80 184
-23 50 -51 110 -62 135 -11 25 -38 83 -59 128 -22 46 -39 85 -39 87 0 2 -21
48 -46 102 -25 54 -52 112 -59 128 -7 17 -32 71 -55 120 -23 50 -50 108 -60
130 -9 22 -27 61 -40 88 l-22 47 -60 0 -59 0 -43 -92z m205 -268 c50 -113 100
-225 111 -250 46 -101 58 -132 52 -141 -6 -11 -531 -12 -537 -1 -3 4 3 25 13
47 32 69 70 155 137 305 106 239 116 261 125 252 4 -4 49 -100 99 -212z"/>
<path d="M6400 770 l0 -580 60 0 60 0 0 265 0 265 365 0 365 0 0 -265 0 -265
60 0 60 0 0 580 0 580 -60 0 -60 0 0 -260 0 -260 -365 0 -365 0 -2 258 -3 257
-57 3 -58 3 0 -581z"/>
<path d="M9137 1343 c-8 -7 -10 -1147 -3 -1154 3 -2 30 -2 61 1 l56 5 2 520 2
520 368 3 367 2 0 -523 c0 -288 2 -526 4 -528 2 -2 29 -2 60 -1 l56 4 0 579 0
579 -483 0 c-266 0 -487 -3 -490 -7z"/>
<path d="M10527 1343 c-3 -5 -8 -114 -11 -243 -11 -398 -21 -507 -58 -637 -34
-118 -103 -180 -190 -171 -32 3 -33 2 -38 -43 -3 -26 -4 -52 -2 -58 2 -7 33
-11 78 -11 233 0 298 177 320 873 l6 187 279 0 279 0 0 -525 0 -525 60 0 60 0
-2 578 -3 577 -387 3 c-213 1 -389 -1 -391 -5z"/>
<path d="M11962 1308 c-17 -36 -291 -635 -376 -820 -14 -32 -37 -82 -50 -110
-13 -29 -38 -84 -55 -121 l-30 -68 65 3 65 3 41 90 c22 50 53 118 69 153 l28
62 323 -2 322 -3 69 -152 70 -153 63 0 c73 0 72 -13 9 125 -20 44 -46 100 -57
125 -11 25 -33 72 -48 105 -15 33 -90 195 -165 360 -76 165 -153 333 -171 373
l-33 72 -60 0 -59 0 -20 -42z m105 -145 c8 -21 31 -71 49 -111 19 -41 34 -75
34 -77 0 -4 96 -217 144 -320 13 -27 22 -53 19 -57 -2 -5 -126 -8 -275 -8
l-270 0 6 25 c3 13 33 83 66 155 33 72 60 133 60 135 0 2 18 43 40 90 22 47
40 88 40 89 0 16 52 116 60 116 6 0 18 -17 27 -37z"/>
<path d="M12538 1343 c-3 -7 -2 -57 1 -95 1 -5 91 -8 201 -8 l200 0 0 -514 c0
-283 2 -520 5 -528 4 -10 20 -12 63 -8 l57 5 3 523 2 522 200 0 200 0 0 55 0
55 -464 0 c-256 0 -466 -3 -468 -7z"/>
<path d="M16360 771 l0 -581 60 0 60 0 0 179 0 178 218 6 c119 3 235 10 257
17 154 43 254 129 290 247 20 64 19 211 0 272 -35 104 -131 193 -253 232 -60
20 -96 22 -349 27 l-283 4 0 -581z m590 447 c82 -27 152 -90 174 -155 9 -26
16 -78 16 -115 0 -125 -61 -214 -180 -260 -48 -18 -82 -22 -267 -26 l-213 -4
0 291 0 291 203 0 c182 0 210 -2 267 -22z"/>
<path d="M17440 770 l0 -580 55 0 55 0 2 457 3 458 94 -160 c52 -88 136 -230
186 -315 51 -85 105 -177 121 -205 44 -80 46 -83 77 -88 33 -4 45 11 145 188
136 239 328 559 337 562 7 2 10 -151 10 -444 l0 -448 58 -3 57 -3 -2 578 -3
578 -47 3 -47 3 -69 -118 c-114 -196 -315 -542 -371 -640 -30 -51 -57 -93 -62
-93 -4 0 -28 35 -52 78 -103 182 -431 738 -445 755 -10 11 -30 17 -59 17 l-43
0 0 -580z"/>
<path d="M19281 1288 c-16 -35 -53 -117 -84 -183 -30 -66 -65 -142 -77 -170
-12 -27 -40 -87 -61 -133 -22 -46 -39 -85 -39 -86 0 -2 -25 -56 -55 -120 -30
-64 -55 -118 -55 -120 0 -3 -25 -58 -56 -123 -85 -180 -84 -163 -11 -163 l63
0 27 58 c15 31 44 95 64 142 21 47 42 91 46 98 6 9 83 12 328 12 l320 0 14
-32 c8 -18 38 -87 68 -153 l54 -120 67 -3 67 -3 -15 33 c-7 18 -32 71 -54 118
-22 47 -74 162 -117 255 -42 94 -88 193 -100 220 -60 130 -104 225 -126 274
-13 30 -45 100 -70 155 l-46 101 -62 3 -61 3 -29 -63z m233 -391 c70 -158 124
-292 121 -297 -4 -6 -106 -10 -271 -10 -224 0 -264 2 -264 14 0 13 39 103 157
366 14 30 34 75 44 100 11 25 24 54 29 65 5 11 14 33 20 49 9 25 13 27 24 15
7 -8 70 -143 140 -302z"/>
</g>
</svg>
